Coordinates
version=1
nRows=11
nColumns=40
inDegrees=yes

Units are S.I. units (second, meters, Newtons, ...)
If the header above contains a line with 'inDegrees', this indicates whether rotational values are in degrees (yes) or radians (no).

endheader
time	pelvis_tilt	pelvis_list	pelvis_rotation	pelvis_tx	pelvis_ty	pelvis_tz	hip_flexion_r	hip_adduction_r	hip_rotation_r	knee_angle_r	knee_angle_r_beta	ankle_angle_r	subtalar_angle_r	mtp_angle_r	hip_flexion_l	hip_adduction_l	hip_rotation_l	knee_angle_l	knee_angle_l_beta	ankle_angle_l	subtalar_angle_l	mtp_angle_l	lumbar_extension	lumbar_bending	lumbar_rotation	arm_flex_r	arm_add_r	arm_rot_r	elbow_flex_r	pro_sup_r	wrist_flex_r	wrist_dev_r	arm_flex_l	arm_add_l	arm_rot_l	elbow_flex_l	pro_sup_l	wrist_flex_l	wrist_dev_l
      3.30000000	    -29.79444622	      0.70457013	      5.26201746	     -0.44858482	      0.46012872	     -0.94489260	    119.71757320	    -32.03859391	      8.67100647	    120.16606556	      2.09729349	     34.05683507	      0.00000000	      0.00000000	    116.20950044	    -16.45031431	      3.36998511	    118.70867952	      2.07185731	     25.72337831	      0.00000000	      0.00000000	    -46.62607663	      5.43747977	     -8.45823018	    -30.22593065	    -46.84874390	     17.04301315	    105.62332824	     45.08216769	      0.00000000	      0.00000000	    -35.58643412	    -43.33637459	     -5.14331532	     72.32838622	     45.08216769	      0.00000000	      0.00000000
      3.30500000	    -29.73033528	      0.66020095	      5.18907228	     -0.44826402	      0.45890104	     -0.94463484	    119.73356925	    -31.98316863	      8.66296344	    120.36633556	      2.10078886	     34.10774667	      0.00000000	      0.00000000	    116.34130674	    -16.56758712	      3.46402471	    118.87990478	      2.07484575	     25.72381818	      0.00000000	      0.00000000	    -46.75999469	      5.46452864	     -8.45439078	    -30.22346691	    -46.84866954	     17.04199764	    105.62326677	     45.08200332	      0.00000000	      0.00000000	    -35.58222787	    -43.33610526	     -5.14501747	     72.33031444	     45.08200332	      0.00000000	      0.00000000
      3.31000000	    -29.79408832	      0.65557297	      4.56339122	     -0.44801857	      0.45733052	     -0.94341778	    119.72901925	    -31.21207316	      8.26407910	    120.49847184	      2.10309508	     34.30046083	      0.00000000	      0.00000000	    116.69096531	    -17.25946060	      3.84547359	    119.23138911	      2.08098031	     25.73609198	      0.00000000	      0.00000000	    -46.55040177	      4.94100746	     -8.23751496	    -30.18114680	    -46.84353046	     17.03318914	    105.62295871	     45.08008689	      0.00000000	      0.00000000	    -35.60843970	    -43.20898212	     -5.15539777	     72.35298692	     45.08008689	      0.00000000	      0.00000000
      3.31500000	    -29.72160500	      0.60652853	      4.50840487	     -0.44776146	      0.45622097	     -0.94321621	    119.73715180	    -31.19122143	      8.37963225	    120.69046292	      2.10644595	     34.31948839	      0.00000000	      0.00000000	    116.78871281	    -17.31403969	      3.99508923	    119.36782915	      2.08336164	     25.73743208	      0.00000000	      0.00000000	    -46.62921411	      4.93240103	     -8.22690513	    -30.17377513	    -46.84323731	     17.03236916	    105.62250877	     45.07992661	      0.00000000	      0.00000000	    -35.60556218	    -43.20393405	     -5.15652096	     72.35489809	     45.07992661	      0.00000000	      0.00000000
      3.32000000	    -29.69555862	      0.56635307	      4.23530242	     -0.44727401	      0.45492127	     -0.94274758	    119.73560411	    -30.91126943	      8.27249424	    120.87785436	      2.10971655	     34.38680989	      0.00000000	      0.00000000	    116.98711549	    -17.59647092	      4.25847267	    119.71559375	      2.08943128	     25.74247598	      0.00000000	      0.00000000	    -46.84179852	      4.92785209	     -8.12142828	    -30.12489122	    -46.83278711	     17.01952310	    105.62065444	     45.07946397	      0.00000000	      0.00000000	    -35.60268852	    -43.16780259	     -5.15796841	     72.36042664	     45.07946397	      0.00000000	      0.00000000
      3.32500000	    -29.68692764	      0.55441239	      4.13387609	     -0.44681309	      0.45415721	     -0.94246054	    119.74689328	    -30.80023815	      8.25766391	    121.02032103	      2.11220306	     34.40746364	      0.00000000	      0.00000000	    117.05479491	    -17.69033605	      4.35930906	    119.78835352	      2.09070117	     25.74400416	      0.00000000	      0.00000000	    -46.88995260	      4.89172481	     -8.09385758	    -30.11266568	    -46.83083094	     17.01621849	    105.62042610	     45.07936035	      0.00000000	      0.00000000	    -35.60162041	    -43.15532869	     -5.15772114	     72.36166819	     45.07936035	      0.00000000	      0.00000000
      3.33000000	    -29.79516638	      0.73767250	      3.23922917	     -0.44629312	      0.45292222	     -0.94059422	    119.74014050	    -29.62545587	      8.08887209	    121.05425300	      2.11279529	     34.47902526	      0.00000000	      0.00000000	    117.36751795	    -18.74519513	      4.67056919	    120.17383173	      2.09742904	     25.78594290	      0.00000000	      0.00000000	    -46.44361566	      3.73701427	     -7.56895708	    -29.87522077	    -46.76533389	     16.97448141	    105.59579081	     45.07725950	      0.00000000	      0.00000000	    -35.58374085	    -42.86818634	     -5.14705618	     72.38705360	     45.07725950	      0.00000000	      0.00000000
      3.33500000	    -29.77209920	      0.75539761	      3.18718715	     -0.44568676	      0.45240002	     -0.94043296	    119.73405936	    -29.60535415	      8.06556724	    121.14777442	      2.11442755	     34.49533703	      0.00000000	      0.00000000	    117.34627727	    -18.75927708	      4.76097916	    120.24359231	      2.09864659	     25.78745060	      0.00000000	      0.00000000	    -46.47381325	      3.72997991	     -7.56140099	    -29.86851786	    -46.76249224	     16.97421710	    105.59413159	     45.07719589	      0.00000000	      0.00000000	    -35.57969357	    -42.86400380	     -5.14679952	     72.38782958	     45.07719589	      0.00000000	      0.00000000
      3.34000000	    -29.79647619	      0.74180718	      3.13963827	     -0.44501011	      0.45191786	     -0.94037084	    119.74209709	    -29.55872368	      8.11936174	    121.25213768	      2.11624903	     34.51999925	      0.00000000	      0.00000000	    117.38909075	    -18.75223313	      4.84323841	    120.35780425	      2.10063996	     25.79007939	      0.00000000	      0.00000000	    -46.48421431	      3.70180710	     -7.54884964	    -29.85885430	    -46.75804775	     16.97385805	    105.59166119	     45.07710775	      0.00000000	      0.00000000	    -35.57313116	    -42.85318376	     -5.14553814	     72.38890541	     45.07710775	      0.00000000	      0.00000000
      3.34500000	    -29.88500345	      0.84412739	      2.63971297	     -0.44406910	      0.45130692	     -0.93921628	    119.73686008	    -28.89659181	      8.06460784	    121.38607607	      2.11858669	     34.66598537	      0.00000000	      0.00000000	    117.54174317	    -19.33096598	      5.04166768	    120.63908291	      2.10554920	     25.82613038	      0.00000000	      0.00000000	    -46.07325519	      3.18205562	     -7.35760831	    -29.75567040	    -46.69403543	     16.97538331	    105.55615849	     45.07609982	      0.00000000	      0.00000000	    -35.50143741	    -42.67225165	     -5.12328932	     72.40126355	     45.07609982	      0.00000000	      0.00000000
      3.35000000	    -29.96327608	      0.85337482	      2.63153391	     -0.44342918	      0.45131486	     -0.93923481	    119.73161280	    -28.86828919	      8.09289795	    121.35494868	      2.11804342	     34.67654706	      0.00000000	      0.00000000	    117.51843445	    -19.24207635	      5.09416520	    120.65019155	      2.10574309	     25.82956502	      0.00000000	      0.00000000	    -46.08286516	      3.14533016	     -7.34258165	    -29.74541917	    -46.68876631	     16.97582535	    105.55250915	     45.07601230	      0.00000000	      0.00000000	    -35.49300777	    -42.65846381	     -5.12134020	     72.40234159	     45.07601230	      0.00000000	      0.00000000
